<svg width="41" height="41" viewBox="0 0 41 41" fill="none" xmlns="http://www.w3.org/2000/svg">
<g clip-path="url(#clip0_34_1416)">
<path d="M19.2871 26.1205L11.4459 18.2793C11.2877 18.1211 11.1623 17.9333 11.0767 17.7267C10.9911 17.5201 10.947 17.2986 10.947 17.0749C10.947 16.8512 10.9911 16.6297 11.0767 16.4231C11.1623 16.2164 11.2877 16.0287 11.4459 15.8705C11.6041 15.7124 11.7918 15.5869 11.9985 15.5013C12.2051 15.4157 12.4266 15.3717 12.6503 15.3717C12.8739 15.3717 13.0954 15.4157 13.3021 15.5013C13.5087 15.5869 13.6965 15.7124 13.8546 15.8705L20.5001 22.4989L27.1284 15.8705C27.2866 15.7124 27.4743 15.5869 27.681 15.5013C27.8876 15.4157 28.1091 15.3717 28.3328 15.3717C28.5564 15.3717 28.7779 15.4157 28.9846 15.5013C29.1912 15.5869 29.379 15.7124 29.5371 15.8705C29.6953 16.0287 29.8208 16.2164 29.9064 16.4231C29.992 16.6297 30.036 16.8512 30.036 17.0749C30.036 17.2986 29.992 17.5201 29.9064 17.7267C29.8208 17.9333 29.6953 18.1211 29.5371 18.2793L21.6959 26.1205C21.5378 26.2789 21.3501 26.4045 21.1435 26.4903C20.9368 26.576 20.7153 26.6201 20.4915 26.6201C20.2678 26.6201 20.0462 26.576 19.8396 26.4903C19.6329 26.4045 19.4452 26.2789 19.2871 26.1205Z" fill="black"/>
</g>
<defs>
<clipPath id="clip0_34_1416">
<rect width="41" height="41" fill="white" transform="matrix(1 0 0 -1 0 41)"/>
</clipPath>
</defs>
</svg>
