<svg width="100" height="100" viewBox="0 0 100 100" fill="none" xmlns="http://www.w3.org/2000/svg">
<path d="M45.3499 27.9287C46.3058 22.7731 53.6937 22.7731 54.6497 27.9287C55.0442 30.057 57.641 30.9011 59.2112 29.4111C63.0149 25.8018 68.9917 30.144 66.7346 34.877C65.8028 36.8307 67.4079 39.0403 69.554 38.7578C74.7526 38.0739 77.0351 45.0993 72.427 47.6016C70.525 48.6345 70.5251 51.3644 72.427 52.3975C77.0351 54.8997 74.7526 61.926 69.554 61.2422C67.4079 60.9597 65.8029 63.1683 66.7346 65.1221C68.992 69.8551 63.015 74.1973 59.2112 70.5879C57.641 69.0981 55.0442 69.9421 54.6497 72.0703C53.6939 77.2262 46.3056 77.2262 45.3499 72.0703C44.9552 69.9421 42.3585 69.098 40.7883 70.5879C36.9845 74.1972 31.0086 69.8551 33.2659 65.1221C34.1973 63.1685 32.5924 60.9599 30.4465 61.2422C25.2476 61.9264 22.9643 54.8997 27.5725 52.3975C29.4747 51.3645 29.4747 48.6345 27.5725 47.6016C22.9644 45.0993 25.2476 38.0736 30.4465 38.7578C32.5924 39.04 34.1976 36.8306 33.2659 34.877C31.0086 30.144 36.9845 25.8021 40.7883 29.4111C42.3585 30.9011 44.9553 30.057 45.3499 27.9287Z" stroke="#4E8098" stroke-width="2"/>
<path d="M39.5833 60.4163L60.4166 39.583" stroke="#4E8098" stroke-width="3" stroke-linecap="round"/>
<circle cx="55.2083" cy="60.4163" r="5.20833" fill="#4E8098"/>
<circle cx="44.7916" cy="39.5833" r="5.20833" fill="#4E8098"/>
</svg>
