<svg width="144" height="143" viewBox="0 0 144 143" fill="none" xmlns="http://www.w3.org/2000/svg">
<path d="M47.2795 82.256C47.2795 82.256 49.3343 87.8825 54.5135 87.8825C59.6927 87.8825 62.1494 82.256 62.1494 82.256" stroke="#FCF7F8" stroke-width="1.65517" stroke-linecap="round"/>
<path d="M47.5208 83.4617L46.0739 84.2655" stroke="#FCF7F8" stroke-width="1.65517" stroke-linecap="round"/>
<path d="M54.5135 89.8917V87.8823" stroke="#FCF7F8" stroke-width="1.65517" stroke-linecap="round"/>
<path d="M61.7474 83.4616L63.355 84.2654" stroke="#FCF7F8" stroke-width="1.65517" stroke-linecap="round"/>
<path d="M50.2083 86.624L48.887 88.2844" stroke="#FCF7F8" stroke-width="1.65517" stroke-linecap="round"/>
<path d="M59.3359 86.6768L60.5415 87.8824" stroke="#FCF7F8" stroke-width="1.65517" stroke-linecap="round"/>
<path d="M80.7618 82.256C80.7618 82.256 82.8166 87.8825 87.9958 87.8825C93.175 87.8825 95.6316 82.256 95.6316 82.256" stroke="#FCF7F8" stroke-width="1.65517" stroke-linecap="round"/>
<path d="M81.0029 83.4617L79.5561 84.2655" stroke="#FCF7F8" stroke-width="1.65517" stroke-linecap="round"/>
<path d="M87.9957 89.8917V87.8823" stroke="#FCF7F8" stroke-width="1.65517" stroke-linecap="round"/>
<path d="M95.2296 83.4616L96.8371 84.2654" stroke="#FCF7F8" stroke-width="1.65517" stroke-linecap="round"/>
<path d="M83.6904 86.624L82.3692 88.2844" stroke="#FCF7F8" stroke-width="1.65517" stroke-linecap="round"/>
<path d="M92.8183 86.6768L94.0239 87.8824" stroke="#FCF7F8" stroke-width="1.65517" stroke-linecap="round"/>
<path d="M89.1992 69.2951H53.8926C49.4965 69.2951 39.5934 72.9953 39.5934 82.5505C39.5934 92.4627 43.5589 98.457 53.8926 98.457C64.2262 98.457 68.0109 91.3539 69.8236 89.3676C70.5943 88.5231 71.0249 88.1443 71.886 88.1443C72.7471 88.1443 72.9799 88.6441 73.6987 89.3676C76.6223 92.3103 78.7751 98.457 89.1992 98.457C97.7202 98.457 103.318 94.5827 103.318 82.5505C103.318 72.8504 93.7919 69.6738 89.1992 69.2951Z" stroke="#FCF7F8" stroke-width="1.65517"/>
<path d="M112.667 42.3556L111.855 42.1965V42.1965L112.667 42.3556ZM108.754 38.9478L108.389 38.2051V38.2052L108.754 38.9478ZM107.556 68.4501L106.744 68.291L106.579 69.1355L107.429 69.2678L107.556 68.4501ZM107.723 68.476L107.596 69.2937V69.2937L107.723 68.476ZM119.416 80.2143L120.201 79.9507V79.9507L119.416 80.2143ZM118.903 81.2175L119.16 82.0041V82.0041L118.903 81.2175ZM114.704 86.7791L114.577 87.5968V87.5968L114.704 86.7791ZM123.26 101.712L122.432 101.716V101.716L123.26 101.712ZM122.182 102.442L121.911 103.224V103.224L122.182 102.442ZM107.467 101.964L107.529 102.789V102.789L107.467 101.964ZM91.1928 111.211L91.7619 111.812L91.8065 111.77L91.8444 111.721L91.1928 111.211ZM89.12 113.174L88.551 112.573L88.3918 112.724L88.3281 112.934L89.12 113.174ZM56.2626 115.439L57.0324 115.135L56.965 114.964L56.8316 114.838L56.2626 115.439ZM51.7979 111.211L51.1464 111.721L51.1842 111.77L51.2289 111.812L51.7979 111.211ZM35.5236 101.964L35.4613 102.789V102.789L35.5236 101.964ZM20.8085 102.442L21.0796 103.224H21.0796L20.8085 102.442ZM19.7308 101.712L20.5584 101.716V101.716L19.7308 101.712ZM28.2867 86.7791L28.4139 87.5968V87.5968L28.2867 86.7791ZM24.0874 81.2175L23.8303 82.0041H23.8303L24.0874 81.2175ZM23.5747 80.2143L22.7902 79.9507L22.7902 79.9507L23.5747 80.2143ZM35.2679 68.476L35.1407 67.6583H35.1407L35.2679 68.476ZM37.0447 68.1995L37.172 69.0173L38.0223 68.885L37.8569 68.0405L37.0447 68.1995ZM32.0408 42.6489L31.2286 42.8079V42.8079L32.0408 42.6489ZM35.9535 39.241L35.5882 39.9836V39.9836L35.9535 39.241ZM58.4179 50.2917L58.0526 51.0343L58.3986 51.2045L58.7515 51.0491L58.4179 50.2917ZM86.1123 50.0857L85.7904 50.848L86.1385 50.9951L86.4776 50.8283L86.1123 50.0857ZM113.479 42.5146C113.776 41.0002 113.202 39.598 112.212 38.7356C111.217 37.8689 109.766 37.5275 108.389 38.2051L109.119 39.6904C109.822 39.3447 110.565 39.4962 111.125 39.9837C111.69 40.4756 112.032 41.289 111.855 42.1965L113.479 42.5146ZM108.369 68.6092L113.479 42.5146L111.855 42.1965L106.744 68.291L108.369 68.6092ZM107.85 67.6583L107.684 67.6324L107.429 69.2678L107.596 69.2937L107.85 67.6583ZM120.201 79.9507C119.518 77.9191 118.198 75.1446 116.183 72.7324C114.168 70.319 111.408 68.2119 107.85 67.6583L107.596 69.2937C110.628 69.7656 113.058 71.5719 114.913 73.7933C116.769 76.016 118 78.5979 118.631 80.4778L120.201 79.9507ZM119.16 82.0041C119.996 81.731 120.496 80.8307 120.201 79.9507L118.631 80.4778C118.631 80.4762 118.63 80.4701 118.63 80.4616C118.631 80.4538 118.633 80.4474 118.635 80.4428C118.64 80.4336 118.646 80.4308 118.646 80.4308L119.16 82.0041ZM114.831 85.9613C113.987 85.83 113.388 85.6767 112.983 85.5193C112.781 85.4412 112.643 85.368 112.553 85.307C112.508 85.2771 112.478 85.2524 112.46 85.2345C112.441 85.2168 112.435 85.2073 112.435 85.2074C112.473 85.2646 112.446 85.34 112.462 85.3055C112.504 85.2199 112.632 85.0516 112.928 84.8156C113.509 84.3538 114.462 83.8432 115.607 83.3415C116.737 82.8464 118 82.3834 119.16 82.0041L118.646 80.4308C117.45 80.8219 116.135 81.3033 114.943 81.8254C113.766 82.3409 112.652 82.9205 111.898 83.5204C111.527 83.8153 111.171 84.1708 110.97 84.5893C110.745 85.0589 110.718 85.6187 111.059 86.1279C111.351 86.5647 111.845 86.8532 112.384 87.0624C112.944 87.2797 113.672 87.4561 114.577 87.5968L114.831 85.9613ZM124.087 101.708C124.075 99.0686 123.639 95.4811 122.299 92.3874C120.957 89.2866 118.641 86.5541 114.831 85.9613L114.577 87.5968C117.612 88.0691 119.562 90.2315 120.78 93.045C122.002 95.8657 122.421 99.2118 122.432 101.716L124.087 101.708ZM121.911 103.224C122.917 103.573 124.093 102.9 124.087 101.708L122.432 101.716C122.432 101.717 122.432 101.714 122.434 101.708C122.435 101.702 122.438 101.696 122.441 101.69C122.448 101.677 122.456 101.669 122.461 101.666C122.466 101.663 122.469 101.663 122.468 101.663C122.468 101.663 122.467 101.663 122.465 101.663C122.463 101.663 122.459 101.662 122.453 101.66L121.911 103.224ZM107.529 102.789C117.17 102.061 119.584 102.417 121.911 103.224L122.453 101.66C119.772 100.73 117.051 100.41 107.405 101.138L107.529 102.789ZM91.8444 111.721C97.2178 104.86 102.664 103.156 107.529 102.789L107.405 101.138C102.136 101.536 96.2371 103.427 90.5412 110.701L91.8444 111.721ZM89.6891 113.775L91.7619 111.812L90.6238 110.61L88.551 112.573L89.6891 113.775ZM72.2971 129.356C80.387 129.356 87.1164 122.621 89.9119 113.414L88.3281 112.934C85.6492 121.756 79.3761 127.701 72.2971 127.701V129.356ZM55.4927 115.743C58.642 123.723 64.905 129.356 72.2971 129.356V127.701C65.8254 127.701 60.0341 122.742 57.0324 115.135L55.4927 115.743ZM51.2289 111.812L55.6935 116.04L56.8316 114.838L52.367 110.61L51.2289 111.812ZM35.4613 102.789C40.3269 103.156 45.773 104.86 51.1464 111.721L52.4495 110.701C46.7536 103.427 40.8545 101.536 35.5859 101.138L35.4613 102.789ZM21.0796 103.224C23.4067 102.417 25.8207 102.061 35.4613 102.789L35.5859 101.138C25.9399 100.41 23.2183 100.73 20.5374 101.66L21.0796 103.224ZM18.9033 101.708C18.8976 102.9 20.0734 103.573 21.0796 103.224L20.5374 101.66C20.5318 101.662 20.528 101.663 20.5261 101.663C20.5241 101.663 20.5231 101.663 20.5229 101.663C20.5222 101.663 20.5246 101.663 20.5293 101.666C20.5343 101.669 20.5427 101.677 20.5497 101.69C20.5532 101.696 20.5556 101.702 20.5571 101.708C20.5585 101.714 20.5584 101.717 20.5584 101.716L18.9033 101.708ZM28.1595 85.9613C24.3498 86.5541 22.0339 89.2866 20.6914 92.3874C19.3521 95.4811 18.9157 99.0686 18.9033 101.708L20.5584 101.716C20.5702 99.2118 20.9892 95.8657 22.2104 93.045C23.4285 90.2315 25.3784 88.0691 28.4139 87.5968L28.1595 85.9613ZM23.8303 82.0041C24.991 82.3834 26.2536 82.8464 27.3839 83.3415C28.5292 83.8432 29.4817 84.3538 30.0623 84.8156C30.3589 85.0516 30.4872 85.2199 30.5283 85.3055C30.5448 85.34 30.5178 85.2646 30.556 85.2074C30.5561 85.2073 30.5498 85.2168 30.5311 85.2345C30.5123 85.2524 30.4827 85.2771 30.4382 85.307C30.3475 85.368 30.2096 85.4412 30.0082 85.5193C29.6025 85.6767 29.0034 85.83 28.1595 85.9613L28.4139 87.5968C29.3183 87.4561 30.0466 87.2797 30.6068 87.0624C31.1462 86.8532 31.6394 86.5647 31.9317 86.1279C32.2724 85.6187 32.2458 85.0589 32.0205 84.5893C31.8196 84.1708 31.4634 83.8153 31.0927 83.5204C30.3387 82.9205 29.2248 82.3409 28.048 81.8254C26.8562 81.3033 25.5411 80.8219 24.3444 80.4308L23.8303 82.0041ZM22.7902 79.9507C22.4947 80.8307 22.9947 81.731 23.8303 82.0041L24.3444 80.4308C24.3443 80.4308 24.3505 80.4336 24.3553 80.4428C24.3577 80.4474 24.3598 80.4538 24.3605 80.4616C24.3612 80.4701 24.3598 80.4762 24.3592 80.4778L22.7902 79.9507ZM35.1407 67.6583C31.5829 68.2119 28.8228 70.319 26.8074 72.7324C24.793 75.1446 23.4726 77.9191 22.7902 79.9507L24.3592 80.4778C24.9907 78.5979 26.2217 76.016 28.0778 73.7933C29.9329 71.5719 32.3625 69.7656 35.3952 69.2937L35.1407 67.6583ZM36.9175 67.3818L35.1407 67.6583L35.3952 69.2937L37.172 69.0173L36.9175 67.3818ZM31.2286 42.8079L36.2326 68.3586L37.8569 68.0405L32.8529 42.4898L31.2286 42.8079ZM36.3188 38.4984C34.9413 37.8208 33.4907 38.1622 32.4956 39.0289C31.5054 39.8913 30.932 41.2935 31.2286 42.8079L32.8529 42.4898C32.6752 41.5823 33.018 40.7688 33.5827 40.277C34.1425 39.7894 34.8855 39.638 35.5882 39.9836L36.3188 38.4984ZM58.7832 49.5491L36.3188 38.4984L35.5882 39.9836L58.0526 51.0343L58.7832 49.5491ZM72.504 46.5273C67.3537 46.5273 62.4668 47.6042 58.0844 49.5343L58.7515 51.0491C62.9258 49.2106 67.5857 48.1825 72.504 48.1825V46.5273ZM86.4343 49.3233C82.1786 47.5259 77.4634 46.5273 72.504 46.5273V48.1825C77.24 48.1825 81.7364 49.1359 85.7904 50.848L86.4343 49.3233ZM108.389 38.2052L85.747 49.3431L86.4776 50.8283L109.119 39.6904L108.389 38.2052Z" fill="#FCF7F8"/>
<path d="M73.5794 116.272C72.9307 117.112 71.6702 117.133 70.9938 116.316L66.5755 110.977C65.6908 109.908 66.435 108.29 67.8222 108.266L76.4792 108.121C77.8665 108.098 78.6645 109.69 77.8161 110.788L73.5794 116.272Z" stroke="#FCF7F8" stroke-width="1.65517"/>
<path d="M57.1279 37.314L66.1055 27.6213H57.1279V25.847H68.5684V27.6213L59.5113 37.314H68.5684V39.0884H57.1279V37.314ZM72.2392 37.1022L82.6999 22.5102H72.2392V20.5504H85.2157V22.5367L74.7021 37.1287H85.2157V39.0884H72.2392V37.1022Z" fill="#FCF7F8"/>
</svg>
