<svg width="24" height="24" viewBox="0 0 24 24" fill="none" xmlns="http://www.w3.org/2000/svg">
<mask id="mask0_41_1377" style="mask-type:alpha" maskUnits="userSpaceOnUse" x="4" y="3" width="8" height="16">
<rect x="4" y="3" width="8" height="16" rx="1" fill="white"/>
</mask>
<g mask="url(#mask0_41_1377)">
<path d="M11.072 6.31085C11.4079 5.47438 12.5921 5.47438 12.928 6.31085L13.8351 8.56967C13.9781 8.92587 14.3124 9.16876 14.6954 9.19473L17.1239 9.3594C18.0233 9.42038 18.3892 10.5466 17.6975 11.1245L15.8295 12.6852C15.5349 12.9313 15.4072 13.3243 15.5009 13.6966L16.0947 16.0572C16.3147 16.9313 15.3567 17.6273 14.5933 17.1481L12.5317 15.8538C12.2066 15.6497 11.7934 15.6497 11.4683 15.8538L9.40675 17.1481C8.64333 17.6273 7.68534 16.9313 7.90526 16.0572L8.49911 13.6966C8.59276 13.3243 8.46507 12.9313 8.1705 12.6852L6.30254 11.1245C5.61081 10.5466 5.97673 9.42038 6.87606 9.3594L9.30463 9.19473C9.6876 9.16876 10.0219 8.92587 10.1649 8.56967L11.072 6.31085Z" fill="#A31621"/>
</g>
<path d="M11.072 6.31085C11.4079 5.47438 12.5921 5.47438 12.928 6.31085L13.8351 8.56967C13.9781 8.92587 14.3124 9.16876 14.6954 9.19473L17.1239 9.3594C18.0233 9.42038 18.3892 10.5466 17.6975 11.1245L15.8295 12.6852C15.5349 12.9313 15.4072 13.3243 15.5009 13.6966L16.0947 16.0572C16.3147 16.9313 15.3567 17.6273 14.5933 17.1481L12.5317 15.8538C12.2066 15.6497 11.7934 15.6497 11.4683 15.8538L9.40675 17.1481C8.64333 17.6273 7.68534 16.9313 7.90526 16.0572L8.49911 13.6966C8.59276 13.3243 8.46507 12.9313 8.1705 12.6852L6.30254 11.1245C5.61081 10.5466 5.97673 9.42038 6.87606 9.3594L9.30463 9.19473C9.6876 9.16876 10.0219 8.92587 10.1649 8.56967L11.072 6.31085Z" stroke="#A31621"/>
</svg>
