<svg width="219" height="226" viewBox="0 0 219 226" fill="none" xmlns="http://www.w3.org/2000/svg">
<g opacity="0.2">
<path d="M72.7333 102.151C72.7333 102.151 75.8582 110.708 83.735 110.708C91.6117 110.708 95.3478 102.151 95.3478 102.151" stroke="#274553" stroke-width="2.51724" stroke-linecap="round"/>
<path d="M73.1001 103.985L70.8997 105.207" stroke="#274553" stroke-width="2.51724" stroke-linecap="round"/>
<path d="M83.735 113.764V110.708" stroke="#274553" stroke-width="2.51724" stroke-linecap="round"/>
<path d="M94.7364 103.984L97.1813 105.207" stroke="#274553" stroke-width="2.51724" stroke-linecap="round"/>
<path d="M77.1873 108.794L75.1779 111.319" stroke="#274553" stroke-width="2.51724" stroke-linecap="round"/>
<path d="M91.0691 108.874L92.9026 110.708" stroke="#274553" stroke-width="2.51724" stroke-linecap="round"/>
<path d="M123.654 102.151C123.654 102.151 126.779 110.708 134.656 110.708C142.533 110.708 146.269 102.151 146.269 102.151" stroke="#274553" stroke-width="2.51724" stroke-linecap="round"/>
<path d="M124.021 103.985L121.82 105.207" stroke="#274553" stroke-width="2.51724" stroke-linecap="round"/>
<path d="M134.656 113.764V110.708" stroke="#274553" stroke-width="2.51724" stroke-linecap="round"/>
<path d="M145.657 103.984L148.102 105.207" stroke="#274553" stroke-width="2.51724" stroke-linecap="round"/>
<path d="M128.108 108.794L126.099 111.319" stroke="#274553" stroke-width="2.51724" stroke-linecap="round"/>
<path d="M141.99 108.874L143.824 110.708" stroke="#274553" stroke-width="2.51724" stroke-linecap="round"/>
<path d="M136.486 82.4402H82.7905C76.1048 82.4402 61.0439 88.0676 61.0439 102.599C61.0438 117.674 67.0748 126.791 82.7905 126.791C98.5063 126.791 104.262 115.988 107.019 112.967C108.191 111.683 108.846 111.107 110.156 111.107C111.465 111.107 111.819 111.867 112.912 112.967C117.359 117.443 120.633 126.791 136.486 126.791C149.445 126.791 157.958 120.898 157.958 102.599C157.958 87.8472 143.471 83.0162 136.486 82.4402Z" stroke="#274553" stroke-width="2.51724"/>
<path d="M172.176 41.4693L173.412 41.7112V41.7112L172.176 41.4693ZM166.226 36.2866L166.781 37.4159V37.4159L166.226 36.2866ZM164.404 81.1548L163.169 80.9129L162.918 82.1972L164.211 82.3985L164.404 81.1548ZM164.657 81.1942L164.851 79.9505V79.9505L164.657 81.1942ZM182.441 99.0461L183.634 98.6453L183.634 98.6453L182.441 99.0461ZM181.661 100.572L182.052 101.768V101.768L181.661 100.572ZM175.275 109.03L175.468 107.786V107.786L175.275 109.03ZM188.287 131.74L189.545 131.734V131.734L188.287 131.74ZM186.648 132.851L187.06 131.662V131.662L186.648 132.851ZM164.269 132.123L164.174 130.868V130.868L164.269 132.123ZM139.518 146.187L140.383 147.101L140.451 147.037L140.509 146.963L139.518 146.187ZM136.366 149.172L135.5 148.258L135.258 148.488L135.161 148.807L136.366 149.172ZM86.3948 152.617L87.5655 152.155L87.463 151.895L87.2602 151.703L86.3948 152.617ZM79.6049 146.187L78.614 146.963L78.6716 147.037L78.7395 147.101L79.6049 146.187ZM54.8544 132.123L54.9492 130.868V130.868L54.8544 132.123ZM32.4752 132.851L32.8875 134.04H32.8875L32.4752 132.851ZM30.8363 131.74L29.5777 131.734V131.734L30.8363 131.74ZM43.8483 109.03L43.6548 107.786H43.6548L43.8483 109.03ZM37.4618 100.572L37.8528 99.3755H37.8528L37.4618 100.572ZM36.6822 99.0461L35.4891 98.6453H35.4891L36.6822 99.0461ZM54.4656 81.1942L54.6591 82.4378V82.4378L54.4656 81.1942ZM57.1678 80.7737L57.3613 82.0174L58.6545 81.8161L58.4029 80.5318L57.1678 80.7737ZM49.5577 41.9155L50.7928 41.6736V41.6736L49.5577 41.9155ZM55.5083 36.7328L56.0638 35.6034V35.6034L55.5083 36.7328ZM89.6729 53.539L89.1173 54.6684L89.6435 54.9272L90.1802 54.6908L89.6729 53.539ZM131.791 53.2255L131.302 54.385L131.831 54.6086L132.347 54.3549L131.791 53.2255ZM173.412 41.7112C173.863 39.408 172.991 37.2755 171.485 35.9639C169.971 34.6459 167.765 34.1266 165.67 35.1572L166.781 37.4159C167.85 36.8902 168.98 37.1206 169.831 37.8621C170.69 38.6101 171.212 39.8472 170.941 41.2274L173.412 41.7112ZM165.639 81.3967L173.412 41.7112L170.941 41.2274L163.169 80.9129L165.639 81.3967ZM164.851 79.9505L164.598 79.9111L164.211 82.3985L164.464 82.4378L164.851 79.9505ZM183.634 98.6453C182.596 95.5556 180.588 91.336 177.524 87.6675C174.459 83.997 170.262 80.7925 164.851 79.9505L164.464 82.4378C169.076 83.1555 172.771 85.9025 175.592 89.281C178.415 92.6613 180.287 96.5879 181.248 99.4469L183.634 98.6453ZM182.052 101.768C183.323 101.353 184.083 99.9836 183.634 98.6453L181.248 99.4469C181.247 99.4444 181.245 99.4352 181.246 99.4223C181.247 99.4104 181.25 99.4006 181.254 99.3937C181.261 99.3797 181.27 99.3754 181.27 99.3755L182.052 101.768ZM175.468 107.786C174.185 107.587 173.274 107.354 172.657 107.114C172.35 106.995 172.141 106.884 172.003 106.791C171.935 106.746 171.89 106.708 171.861 106.681C171.833 106.654 171.823 106.64 171.823 106.64C171.882 106.727 171.84 106.842 171.866 106.789C171.928 106.659 172.123 106.403 172.574 106.044C173.457 105.342 174.906 104.565 176.648 103.802C178.367 103.049 180.287 102.345 182.052 101.768L181.27 99.3755C179.45 99.9703 177.45 100.702 175.638 101.496C173.848 102.28 172.154 103.162 171.007 104.074C170.443 104.523 169.902 105.063 169.596 105.7C169.253 106.414 169.213 107.265 169.731 108.04C170.176 108.704 170.926 109.143 171.746 109.461C172.598 109.792 173.706 110.06 175.081 110.274L175.468 107.786ZM189.545 131.734C189.526 127.72 188.863 122.264 186.826 117.559C184.784 112.844 181.262 108.688 175.468 107.786L175.081 110.274C179.698 110.992 182.663 114.281 184.516 118.56C186.373 122.849 187.01 127.938 187.028 131.746L189.545 131.734ZM186.235 134.04C187.766 134.571 189.554 133.547 189.545 131.734L187.028 131.746C187.028 131.748 187.028 131.743 187.03 131.734C187.032 131.726 187.036 131.716 187.041 131.707C187.052 131.687 187.065 131.676 187.072 131.671C187.08 131.666 187.083 131.666 187.082 131.666C187.082 131.666 187.08 131.666 187.077 131.666C187.074 131.665 187.069 131.665 187.06 131.662L186.235 134.04ZM164.363 133.378C179.025 132.271 182.696 132.813 186.235 134.04L187.06 131.662C182.983 130.248 178.844 129.761 164.174 130.868L164.363 133.378ZM140.509 146.963C148.681 136.528 156.963 133.937 164.363 133.378L164.174 130.868C156.161 131.473 147.19 134.349 138.527 145.411L140.509 146.963ZM137.231 150.086L140.383 147.101L138.653 145.273L135.5 148.258L137.231 150.086ZM110.781 173.783C123.084 173.783 133.319 163.54 137.57 149.538L135.161 148.807C131.087 162.225 121.547 171.266 110.781 171.266V173.783ZM85.224 153.079C90.0134 165.216 99.5385 173.783 110.781 173.783V171.266C100.938 171.266 92.1307 163.724 87.5655 152.155L85.224 153.079ZM78.7395 147.101L85.5293 153.531L87.2602 151.703L80.4704 145.273L78.7395 147.101ZM54.7597 133.378C62.1595 133.937 70.442 136.528 78.614 146.963L80.5959 145.411C71.9334 134.349 62.9619 131.473 54.9492 130.868L54.7597 133.378ZM32.8875 134.04C36.4266 132.813 40.0979 132.271 54.7597 133.378L54.9492 130.868C40.2792 129.761 36.1402 130.248 32.0628 131.662L32.8875 134.04ZM29.5777 131.734C29.5691 133.547 31.3573 134.571 32.8875 134.04L32.0628 131.662C32.0543 131.665 32.0487 131.665 32.0457 131.666C32.0427 131.666 32.0411 131.666 32.0408 131.666C32.0398 131.666 32.0434 131.666 32.0506 131.671C32.0582 131.676 32.0709 131.687 32.0817 131.707C32.0869 131.716 32.0906 131.726 32.0928 131.734C32.095 131.743 32.0949 131.748 32.0949 131.746L29.5777 131.734ZM43.6548 107.786C37.861 108.688 34.3388 112.844 32.2972 117.559C30.2602 122.264 29.5966 127.72 29.5777 131.734L32.0949 131.746C32.1128 127.938 32.75 122.849 34.6072 118.56C36.4598 114.281 39.4252 110.992 44.0418 110.274L43.6548 107.786ZM37.0708 101.768C38.836 102.345 40.7563 103.049 42.4752 103.802C44.217 104.565 45.6657 105.342 46.5487 106.044C46.9998 106.403 47.1948 106.659 47.2573 106.789C47.2825 106.842 47.2414 106.727 47.2996 106.64C47.2997 106.64 47.2901 106.654 47.2617 106.681C47.2331 106.708 47.1881 106.746 47.1204 106.791C46.9824 106.884 46.7726 106.995 46.4664 107.114C45.8494 107.354 44.9383 107.587 43.6548 107.786L44.0418 110.274C45.4172 110.06 46.5248 109.792 47.3767 109.461C48.1972 109.143 48.9472 108.704 49.3917 108.04C49.9099 107.265 49.8695 106.414 49.5267 105.7C49.2213 105.063 48.6796 104.523 48.1158 104.074C46.969 103.162 45.275 102.28 43.4853 101.496C41.6727 100.702 39.6727 99.9703 37.8528 99.3755L37.0708 101.768ZM35.4891 98.6453C35.0396 99.9836 35.8 101.353 37.0708 101.768L37.8528 99.3755C37.8526 99.3754 37.862 99.3797 37.8693 99.3937C37.8729 99.4006 37.8762 99.4104 37.8772 99.4223C37.8783 99.4352 37.8761 99.4445 37.8753 99.4469L35.4891 98.6453ZM54.2721 79.9505C48.8612 80.7925 44.6637 83.997 41.5985 87.6675C38.535 91.336 36.5269 95.5556 35.4891 98.6453L37.8753 99.4469C38.8356 96.5879 40.7078 92.6613 43.5307 89.281C46.3519 85.9025 50.047 83.1555 54.6591 82.4378L54.2721 79.9505ZM56.9743 79.5301L54.2721 79.9505L54.6591 82.4378L57.3613 82.0174L56.9743 79.5301ZM48.3225 42.1574L55.9326 81.0156L58.4029 80.5318L50.7928 41.6736L48.3225 42.1574ZM56.0638 35.6034C53.9688 34.5728 51.7627 35.0921 50.2494 36.4101C48.7435 37.7217 47.8714 39.8542 48.3225 42.1574L50.7928 41.6736C50.5225 40.2934 51.0439 39.0563 51.9027 38.3083C52.7541 37.5668 53.884 37.3364 54.9527 37.8621L56.0638 35.6034ZM90.2284 52.4096L56.0638 35.6034L54.9527 37.8621L89.1173 54.6684L90.2284 52.4096ZM111.095 47.814C103.263 47.814 95.8305 49.4518 89.1656 52.3871L90.1802 54.6908C96.5286 51.8949 103.616 50.3313 111.095 50.3313V47.814ZM132.281 52.0661C125.809 49.3326 118.638 47.814 111.095 47.814V50.3313C118.298 50.3313 125.136 51.7811 131.302 54.385L132.281 52.0661ZM165.67 35.1572L131.236 52.0962L132.347 54.3549L166.781 37.4159L165.67 35.1572Z" fill="#274553"/>
<path d="M112.731 153.884C111.744 155.161 109.828 155.193 108.799 153.95L102.078 145.83C100.733 144.205 101.866 141.745 103.976 141.709L117.141 141.488C119.251 141.453 120.465 143.874 119.175 145.544L112.731 153.884Z" stroke="#274553" stroke-width="2.51724"/>
<path d="M5.84 201.557V198.254H13.4521C14.4993 198.254 15.4257 198.039 16.2312 197.61C17.0635 197.18 17.708 196.576 18.1644 195.797C18.6477 195.019 18.8894 194.092 18.8894 193.018C18.8894 191.944 18.6477 191.018 18.1644 190.239C17.708 189.46 17.0635 188.856 16.2312 188.427C15.4257 187.997 14.4993 187.782 13.4521 187.782H5.84V184.48H13.6938C15.4122 184.48 16.9427 184.829 18.2852 185.527C19.6546 186.225 20.7286 187.218 21.5073 188.507C22.3128 189.769 22.7156 191.273 22.7156 193.018C22.7156 194.737 22.3128 196.24 21.5073 197.529C20.7286 198.791 19.6546 199.785 18.2852 200.509C16.9427 201.208 15.4122 201.557 13.6938 201.557H5.84ZM3.30262 212.431V184.48H7.08855V212.431H3.30262ZM27.1236 212.431V193.3H30.7484V212.431H27.1236ZM28.936 189.474C28.2647 189.474 27.7143 189.259 27.2847 188.829C26.8551 188.373 26.6403 187.809 26.6403 187.138C26.6403 186.493 26.8551 185.956 27.2847 185.527C27.7143 185.07 28.2647 184.842 28.936 184.842C29.6073 184.842 30.1577 185.07 30.5873 185.527C31.0169 185.956 31.2317 186.493 31.2317 187.138C31.2317 187.809 31.0169 188.373 30.5873 188.829C30.1577 189.259 29.6073 189.474 28.936 189.474ZM33.6738 220.849C32.4386 220.849 31.4049 220.647 30.5725 220.245C29.7133 219.842 28.9481 219.265 28.2768 218.513L30.6128 216.137C30.9887 216.593 31.4049 216.929 31.8614 217.143C32.291 217.358 32.8146 217.466 33.4321 217.466C34.2376 217.466 34.9357 217.211 35.5265 216.7C36.1172 216.217 36.4125 215.479 36.4125 214.485V193.3H40.0374V214.445C40.0374 215.841 39.742 217.009 39.1513 217.949C38.5606 218.889 37.7819 219.6 36.8153 220.084C35.8487 220.594 34.8015 220.849 33.6738 220.849ZM38.2652 189.474C37.6208 189.474 37.0838 189.259 36.6542 188.829C36.2246 188.373 36.0098 187.809 36.0098 187.138C36.0098 186.493 36.2246 185.956 36.6542 185.527C37.0838 185.07 37.6208 184.842 38.2652 184.842C38.9365 184.842 39.4869 185.07 39.9165 185.527C40.3461 185.956 40.5609 186.493 40.5609 187.138C40.5609 187.809 40.3461 188.373 39.9165 188.829C39.4869 189.259 38.9365 189.474 38.2652 189.474ZM53.5084 212.834C51.7631 212.834 50.1789 212.404 48.7558 211.545C47.3327 210.659 46.205 209.464 45.3726 207.961C44.5671 206.457 44.1644 204.765 44.1644 202.886C44.1644 201.006 44.5671 199.315 45.3726 197.811C46.205 196.307 47.3193 195.113 48.7155 194.226C50.1386 193.34 51.7362 192.897 53.5084 192.897C54.9583 192.897 56.2471 193.206 57.3749 193.824C58.5294 194.414 59.4558 195.247 60.1539 196.321C60.852 197.368 61.2413 198.59 61.3219 199.986V205.745C61.2413 207.115 60.852 208.336 60.1539 209.41C59.4826 210.484 58.5697 211.33 57.4151 211.948C56.2874 212.539 54.9852 212.834 53.5084 212.834ZM54.1125 209.41C55.9115 209.41 57.3614 208.806 58.4623 207.598C59.5632 206.363 60.1136 204.792 60.1136 202.886C60.1136 201.57 59.8585 200.429 59.3484 199.462C58.8651 198.469 58.1669 197.704 57.254 197.167C56.3411 196.603 55.2805 196.321 54.0722 196.321C52.864 196.321 51.7899 196.603 50.8502 197.167C49.9372 197.73 49.2123 198.509 48.6753 199.503C48.1651 200.469 47.91 201.584 47.91 202.845C47.91 204.134 48.1651 205.275 48.6753 206.269C49.2123 207.236 49.9507 208.001 50.8904 208.565C51.8302 209.129 52.9042 209.41 54.1125 209.41ZM59.872 212.431V207.276L60.5566 202.604L59.872 197.972V193.3H63.5371V212.431H59.872ZM68.8145 212.431V193.3H72.4393V212.431H68.8145ZM81.743 212.431V200.872C81.743 199.449 81.3 198.335 80.4139 197.529C79.5547 196.697 78.4672 196.281 77.1516 196.281C76.2655 196.281 75.4734 196.468 74.7753 196.844C74.0772 197.22 73.5133 197.744 73.0837 198.415C72.6541 199.086 72.4393 199.892 72.4393 200.832L70.9491 200.107C70.9491 198.657 71.2579 197.395 71.8754 196.321C72.5198 195.247 73.3925 194.414 74.4934 193.824C75.5942 193.206 76.8294 192.897 78.1987 192.897C79.5413 192.897 80.7495 193.193 81.8236 193.783C82.9244 194.374 83.7837 195.207 84.4012 196.281C85.0456 197.355 85.3678 198.63 85.3678 200.107V212.431H81.743ZM94.6716 212.431V200.872C94.6716 199.449 94.2285 198.335 93.3425 197.529C92.4832 196.697 91.4092 196.281 90.1204 196.281C89.2343 196.281 88.4288 196.468 87.7038 196.844C87.0057 197.22 86.4419 197.744 86.0123 198.415C85.5826 199.086 85.3678 199.892 85.3678 200.832L83.3138 200.107C83.3943 198.63 83.7837 197.368 84.4818 196.321C85.2067 195.247 86.1331 194.414 87.2608 193.824C88.3885 193.206 89.6237 192.897 90.9662 192.897C92.3624 192.897 93.611 193.193 94.7118 193.783C95.8127 194.374 96.6854 195.207 97.3298 196.281C98.001 197.355 98.3367 198.643 98.3367 200.147V212.431H94.6716ZM110.156 216.298C108.089 216.298 106.545 215.707 105.525 214.525C104.504 213.344 104.102 211.599 104.316 209.29L104.8 204.295C104.907 203.275 104.813 202.523 104.518 202.04C104.222 201.557 103.699 201.315 102.947 201.315H101.819V198.536H102.947C103.699 198.536 104.222 198.294 104.518 197.811C104.813 197.301 104.907 196.549 104.8 195.556L104.316 190.682C104.102 188.346 104.504 186.601 105.525 185.446C106.545 184.265 108.089 183.674 110.156 183.674H112.17V186.534H110.479C109.27 186.534 108.411 186.843 107.901 187.46C107.418 188.078 107.243 189.098 107.377 190.521L107.78 194.951C107.887 195.999 107.847 196.898 107.659 197.65C107.471 198.375 107.082 198.979 106.491 199.462C105.927 199.946 105.122 200.335 104.075 200.63V199.341C105.122 199.556 105.927 199.905 106.491 200.389C107.082 200.872 107.471 201.49 107.659 202.241C107.847 202.966 107.887 203.852 107.78 204.9L107.377 209.451C107.27 210.874 107.458 211.881 107.941 212.471C108.425 213.089 109.27 213.398 110.479 213.398H112.17V216.298H110.156ZM116.932 212.431V184.48H120.718V212.431H116.932ZM127.316 212.431V184.48H129.974L131.102 188.87V212.431H127.316ZM146.649 212.431L129.491 189.514L129.974 184.48L147.172 207.356L146.649 212.431ZM146.649 212.431L145.521 208.283V184.48H149.307V212.431H146.649ZM156.071 216.298H154.058V213.398H155.749C156.958 213.398 157.803 213.089 158.287 212.471C158.77 211.881 158.958 210.874 158.851 209.451L158.448 204.9C158.367 203.852 158.407 202.966 158.569 202.241C158.757 201.49 159.132 200.872 159.696 200.389C160.287 199.905 161.106 199.556 162.153 199.341V200.63C161.106 200.335 160.287 199.946 159.696 199.462C159.132 198.979 158.757 198.375 158.569 197.65C158.407 196.898 158.367 195.999 158.448 194.951L158.851 190.521C158.985 189.098 158.797 188.078 158.287 187.46C157.803 186.843 156.958 186.534 155.749 186.534H154.058V183.674H156.071C158.139 183.674 159.683 184.265 160.703 185.446C161.75 186.601 162.153 188.346 161.911 190.682L161.428 195.556C161.321 196.549 161.415 197.301 161.71 197.811C162.005 198.294 162.529 198.536 163.281 198.536H164.409V201.315H163.281C162.529 201.315 162.005 201.557 161.71 202.04C161.415 202.523 161.321 203.275 161.428 204.295L161.911 209.29C162.126 211.599 161.724 213.344 160.703 214.525C159.683 215.707 158.139 216.298 156.071 216.298ZM181.818 212.431V201.275C181.818 199.825 181.361 198.63 180.448 197.69C179.535 196.75 178.354 196.281 176.904 196.281C175.937 196.281 175.078 196.495 174.326 196.925C173.574 197.355 172.984 197.945 172.554 198.697C172.124 199.449 171.91 200.308 171.91 201.275L170.419 200.429C170.419 198.979 170.742 197.69 171.386 196.562C172.03 195.435 172.93 194.549 174.085 193.904C175.239 193.233 176.541 192.897 177.991 192.897C179.441 192.897 180.717 193.22 181.818 193.864C182.945 194.508 183.831 195.408 184.476 196.562C185.12 197.717 185.442 199.046 185.442 200.55V212.431H181.818ZM168.285 212.431V183.674H171.91V212.431H168.285ZM198.486 212.834C196.74 212.834 195.156 212.404 193.733 211.545C192.31 210.659 191.182 209.464 190.35 207.961C189.545 206.457 189.142 204.765 189.142 202.886C189.142 201.006 189.545 199.315 190.35 197.811C191.182 196.307 192.297 195.113 193.693 194.226C195.116 193.34 196.714 192.897 198.486 192.897C199.936 192.897 201.225 193.206 202.352 193.824C203.507 194.414 204.433 195.247 205.131 196.321C205.829 197.368 206.219 198.59 206.299 199.986V205.745C206.219 207.115 205.829 208.336 205.131 209.41C204.46 210.484 203.547 211.33 202.393 211.948C201.265 212.539 199.963 212.834 198.486 212.834ZM199.09 209.41C200.889 209.41 202.339 208.806 203.44 207.598C204.541 206.363 205.091 204.792 205.091 202.886C205.091 201.57 204.836 200.429 204.326 199.462C203.842 198.469 203.144 197.704 202.231 197.167C201.318 196.603 200.258 196.321 199.05 196.321C197.841 196.321 196.767 196.603 195.828 197.167C194.915 197.73 194.19 198.509 193.653 199.503C193.142 200.469 192.887 201.584 192.887 202.845C192.887 204.134 193.142 205.275 193.653 206.269C194.19 207.236 194.928 208.001 195.868 208.565C196.808 209.129 197.882 209.41 199.09 209.41ZM204.849 212.431V207.276L205.534 202.604L204.849 197.972V193.3H208.514V212.431H204.849Z" fill="#274553"/>
<path d="M87.7108 33.3015L101.364 18.5605H87.7108V15.8621H105.11V18.5605L91.3356 33.3015H105.11V36H87.7108V33.3015ZM110.693 32.9793L126.602 10.7873H110.693V7.80689H130.428V10.8276L114.438 33.0196H130.428V36H110.693V32.9793Z" fill="#274553"/>
</g>
</svg>
